<svg width="1024" height="1024" viewBox="0 0 1024 1024" xmlns="http://www.w3.org/2000/svg">
  <defs>
    <linearGradient id="bg" x1="140" y1="80" x2="900" y2="940" gradientUnits="userSpaceOnUse">
      <stop offset="0" stop-color="#18283a"/>
      <stop offset="0.55" stop-color="#223954"/>
      <stop offset="1" stop-color="#0d1724"/>
    </linearGradient>
    <linearGradient id="glow" x1="260" y1="180" x2="720" y2="860" gradientUnits="userSpaceOnUse">
      <stop offset="0" stop-color="#ff7f50"/>
      <stop offset="1" stop-color="#ffb347"/>
    </linearGradient>
    <linearGradient id="track" x1="260" y1="250" x2="780" y2="790" gradientUnits="userSpaceOnUse">
      <stop offset="0" stop-color="#2f4a68"/>
      <stop offset="1" stop-color="#1d3047"/>
    </linearGradient>
    <filter id="shadow" x="-20%" y="-20%" width="140%" height="140%">
      <feDropShadow dx="0" dy="30" stdDeviation="28" flood-color="#08111b" flood-opacity="0.35"/>
    </filter>
  </defs>

  <rect x="72" y="72" width="880" height="880" rx="198" fill="url(#bg)"/>
  <rect x="104" y="104" width="816" height="816" rx="170" fill="none" stroke="#6fa6cf" stroke-opacity="0.16" stroke-width="2"/>
  <circle cx="800" cy="220" r="120" fill="#8fd3ff" fill-opacity="0.09"/>
  <circle cx="260" cy="800" r="150" fill="#ff9458" fill-opacity="0.08"/>

  <g filter="url(#shadow)">
    <rect x="214" y="214" width="596" height="596" rx="118" fill="#112031" fill-opacity="0.9" stroke="#8dc2e6" stroke-opacity="0.12" stroke-width="3"/>

    <rect x="286" y="618" width="110" height="120" rx="38" fill="url(#track)"/>
    <rect x="286" y="618" width="110" height="120" rx="38" fill="url(#glow)"/>

    <rect x="457" y="472" width="110" height="266" rx="38" fill="url(#track)"/>
    <rect x="457" y="472" width="110" height="266" rx="38" fill="url(#glow)"/>

    <rect x="628" y="316" width="110" height="422" rx="38" fill="url(#track)"/>
    <rect x="628" y="316" width="110" height="422" rx="38" fill="url(#glow)"/>

    <path d="M286 390C342 352 386 472 434 472C478 472 486 340 550 340C614 340 620 548 684 548C718 548 742 492 764 458"
      fill="none" stroke="#d9f5ff" stroke-width="28" stroke-linecap="round" stroke-linejoin="round" stroke-opacity="0.95"/>
    <circle cx="764" cy="458" r="24" fill="#ffffff"/>
  </g>
</svg>
